<!DOCTYPE svg PUBLIC "-//W3C//DTD SVG 1.1//EN" "http://www.w3.org/Graphics/SVG/1.1/DTD/svg11.dtd">
                <svg xmlns="http://www.w3.org/2000/svg" xmlns:xlink="http://www.w3.org/1999/xlink" 
                width="519" height="841">
                
                <g>
                   <rect x="50" y="65"
            width="334.2" height="30"
            rx="3" ry="3"
            style="fill:#90caf9; stroke:#444; stroke-width:1" />
                   <title>const prompt = require(&apos;prompt-sync&apos;)()</title>
            <text x="65" y="85"
                font-family="monospace" font-size="13" fill="#222">
                <tspan x="65" y="85">const prompt = require(&apos;prompt-sync&apos;)()</tspan>
            </text>
                   
                   
                </g>
                <g>
                   <rect x="50" y="113.5"
            width="357.59999999999997" height="30"
            rx="3" ry="3"
            style="fill:#90caf9; stroke:#444; stroke-width:1" />
                   <title>const name = prompt(&apos;What is your name? &apos;)</title>
            <text x="65" y="133.5"
                font-family="monospace" font-size="13" fill="#222">
                <tspan x="65" y="133.5">const name = prompt(&apos;What is your name? &apos;)</tspan>
            </text>
                   
                   
                </g>
                <g>
                   <rect x="50" y="162"
            width="61.2" height="30"
            rx="3" ry="3"
            style="fill:#90caf9; stroke:#444; stroke-width:1" />
                   <title>name</title>
            <text x="65" y="182"
                font-family="monospace" font-size="13" fill="#222">
                <tspan x="65" y="182">name</tspan>
            </text>
                   
                   
                </g>
                <g>
                   <rect x="50" y="210.5"
            width="279.6" height="30"
            rx="2" ry="2"
            style="fill:#C5E1A5; stroke:#444; stroke-width:1" />
                   <title>console.log(`Hey there ${name}`)</title>
            <text x="65" y="230.5"
                font-family="monospace" font-size="13" fill="#222">
                <tspan x="65" y="230.5">console.log(`Hey there ${name}`)</tspan>
            </text>
                   
                   
                </g>
                <g>
                   <rect x="50" y="259"
            width="443.4" height="30"
            rx="3" ry="3"
            style="fill:#90caf9; stroke:#444; stroke-width:1" />
                   <title>let numero = prompt(&apos;Inserisci il numero da convertire in binario: &apos;)</title>
            <text x="65" y="279"
                font-family="monospace" font-size="13" fill="#222">
                <tspan x="65" y="279">let numero = prompt(&apos;Inserisci il numero da conver...</tspan>
            </text>
                   
                   
                </g>
                <g>
                   <rect x="50" y="307.5"
            width="201.6" height="30"
            rx="3" ry="3"
            style="fill:#90caf9; stroke:#444; stroke-width:1" />
                   <title>let quoziente = numero</title>
            <text x="65" y="327.5"
                font-family="monospace" font-size="13" fill="#222">
                <tspan x="65" y="327.5">let quoziente = numero</tspan>
            </text>
                   
                   
                </g>
                <g>
                   <rect x="50" y="356"
            width="123.6" height="30"
            rx="3" ry="3"
            style="fill:#90caf9; stroke:#444; stroke-width:1" />
                   <title>let base = 2</title>
            <text x="65" y="376"
                font-family="monospace" font-size="13" fill="#222">
                <tspan x="65" y="376">let base = 2</tspan>
            </text>
                   
                   
                </g>
                <g>
                   <rect x="50" y="404.5"
            width="131.39999999999998" height="30"
            rx="3" ry="3"
            style="fill:#90caf9; stroke:#444; stroke-width:1" />
                   <title>let resto = 0</title>
            <text x="65" y="424.5"
                font-family="monospace" font-size="13" fill="#222">
                <tspan x="65" y="424.5">let resto = 0</tspan>
            </text>
                   
                   
                </g>
                <g>
                   <rect x="50" y="453"
            width="170.4" height="30"
            rx="3" ry="3"
            style="fill:#90caf9; stroke:#444; stroke-width:1" />
                   <title>let risultato = &quot;&quot;</title>
            <text x="65" y="473"
                font-family="monospace" font-size="13" fill="#222">
                <tspan x="65" y="473">let risultato = &quot;&quot;</tspan>
            </text>
                   
                   
                </g><g>

            <rect x="80" y="536.5"
            width="169.2" height="30"
            rx="3" ry="3"
            style="fill:#b39ddb; stroke:#444; stroke-width:1" />
            <polygon points="50,551.5 80,521.5 110,551.5 80,581.5"
            style="fill:#b39ddb; stroke:#444; stroke-width:1" />
                
            <title>quoziente != 0</title>
            <text x="125" y="556.5"
                font-family="monospace" font-size="13" fill="#222">
                <tspan x="125" y="556.5">quoziente != 0</tspan>
            </text>
            
            <text x="60.5" y="556.5"
        font-family="monospace" font-size="13" fill="#222">while</text>
        </g>
                <g>
                   <rect x="100" y="591.5"
            width="318.59999999999997" height="30"
            rx="3" ry="3"
            style="fill:#90caf9; stroke:#444; stroke-width:1" />
                   <title>quoziente = Math.floor(numero / base)</title>
            <text x="115" y="611.5"
                font-family="monospace" font-size="13" fill="#222">
                <tspan x="115" y="611.5">quoziente = Math.floor(numero / base)</tspan>
            </text>
                   
                   
                </g>
                <g>
                   <rect x="100" y="640"
            width="287.4" height="30"
            rx="3" ry="3"
            style="fill:#90caf9; stroke:#444; stroke-width:1" />
                   <title>resto = numero - quoziente * base</title>
            <text x="115" y="660"
                font-family="monospace" font-size="13" fill="#222">
                <tspan x="115" y="660">resto = numero - quoziente * base</tspan>
            </text>
                   
                   
                </g>
                <g>
                   <rect x="100" y="688.5"
            width="170.4" height="30"
            rx="3" ry="3"
            style="fill:#90caf9; stroke:#444; stroke-width:1" />
                   <title>numero = quoziente</title>
            <text x="115" y="708.5"
                font-family="monospace" font-size="13" fill="#222">
                <tspan x="115" y="708.5">numero = quoziente</tspan>
            </text>
                   
                   
                </g>
                <g>
                   <rect x="100" y="737"
            width="256.2" height="30"
            rx="3" ry="3"
            style="fill:#90caf9; stroke:#444; stroke-width:1" />
                   <title>risultato = resto + risultato</title>
            <text x="115" y="757"
                font-family="monospace" font-size="13" fill="#222">
                <tspan x="115" y="757">risultato = resto + risultato</tspan>
            </text>
                   
                   
                </g>
                <g>
                   <rect x="50" y="785.5"
            width="443.4" height="30"
            rx="2" ry="2"
            style="fill:#C5E1A5; stroke:#444; stroke-width:1" />
                   <title>console.log(&quot;Il numero convertito in binario è il seguente :&quot; + risultato)</title>
            <text x="65" y="805.5"
                font-family="monospace" font-size="13" fill="#222">
                <tspan x="65" y="805.5">console.log(&quot;Il numero convertito in binario è il ...</tspan>
            </text>
                   
                   
                </g>
            <g>
               <rect x="25" y="13.75"
            width="216.6" height="24"
            style="fill:#fff59d; stroke:#444; stroke-width:1" />
               <circle cx="25" cy="25" r="15"
        style="fill:#fff59d; stroke:#444; stroke-width:1" />
               <title>Program: source module</title>
            <text x="55" y="30"
                font-family="monospace" font-size="13" fill="#222">
                <tspan x="55" y="30">Program: source module</tspan>
            </text>
            </g>
            <g>
               <path d="M25, 40 L25 76 Q25 80
                29 80
                L42 80 "
        style="fill:none; stroke:#444; stroke-width:1" />
               <path d="M42, 77 L50, 80 L42, 83 Z" 
        fill="#333" />
            </g>
            <g>
               <path d="M25, 40 L25 124.5 Q25 128.5
                29 128.5
                L42 128.5 "
        style="fill:none; stroke:#444; stroke-width:1" />
               <path d="M42, 125.5 L50, 128.5 L42, 131.5 Z" 
        fill="#333" />
            </g>
            <g>
               <path d="M25, 40 L25 173 Q25 177
                29 177
                L42 177 "
        style="fill:none; stroke:#444; stroke-width:1" />
               <path d="M42, 174 L50, 177 L42, 180 Z" 
        fill="#333" />
            </g>
            <g>
               <path d="M25, 40 L25 221.5 Q25 225.5
                29 225.5
                L42 225.5 "
        style="fill:none; stroke:#444; stroke-width:1" />
               <path d="M42, 222.5 L50, 225.5 L42, 228.5 Z" 
        fill="#333" />
            </g>
            <g>
               <path d="M25, 40 L25 270 Q25 274
                29 274
                L42 274 "
        style="fill:none; stroke:#444; stroke-width:1" />
               <path d="M42, 271 L50, 274 L42, 277 Z" 
        fill="#333" />
            </g>
            <g>
               <path d="M25, 40 L25 318.5 Q25 322.5
                29 322.5
                L42 322.5 "
        style="fill:none; stroke:#444; stroke-width:1" />
               <path d="M42, 319.5 L50, 322.5 L42, 325.5 Z" 
        fill="#333" />
            </g>
            <g>
               <path d="M25, 40 L25 367 Q25 371
                29 371
                L42 371 "
        style="fill:none; stroke:#444; stroke-width:1" />
               <path d="M42, 368 L50, 371 L42, 374 Z" 
        fill="#333" />
            </g>
            <g>
               <path d="M25, 40 L25 415.5 Q25 419.5
                29 419.5
                L42 419.5 "
        style="fill:none; stroke:#444; stroke-width:1" />
               <path d="M42, 416.5 L50, 419.5 L42, 422.5 Z" 
        fill="#333" />
            </g>
            <g>
               <path d="M25, 40 L25 464 Q25 468
                29 468
                L42 468 "
        style="fill:none; stroke:#444; stroke-width:1" />
               <path d="M42, 465 L50, 468 L42, 471 Z" 
        fill="#333" />
            </g>
            <g>
               <path d="M25, 40 L25 547.5 Q25 551.5
                29 551.5
                L42 551.5 "
        style="fill:none; stroke:#444; stroke-width:1" />
               <path d="M42, 548.5 L50, 551.5 L42, 554.5 Z" 
        fill="#333" />
            </g>
            <g>
               <path d="M80, 581.5 L80 602.5 Q80 606.5
                84 606.5
                L92 606.5 "
        style="fill:none; stroke:#444; stroke-width:1" />
               <path d="M92, 603.5 L100, 606.5 L92, 609.5 Z" 
        fill="#333" />
            </g>
            <g>
               <path d="M80, 581.5 L80 651 Q80 655
                84 655
                L92 655 "
        style="fill:none; stroke:#444; stroke-width:1" />
               <path d="M92, 652 L100, 655 L92, 658 Z" 
        fill="#333" />
            </g>
            <g>
               <path d="M80, 581.5 L80 699.5 Q80 703.5
                84 703.5
                L92 703.5 "
        style="fill:none; stroke:#444; stroke-width:1" />
               <path d="M92, 700.5 L100, 703.5 L92, 706.5 Z" 
        fill="#333" />
            </g>
            <g>
               <path d="M80, 581.5 L80 748 Q80 752
                84 752
                L92 752 "
        style="fill:none; stroke:#444; stroke-width:1" />
               <path d="M92, 749 L100, 752 L92, 755 Z" 
        fill="#333" />
            </g>
            <g>
               <path d="M356.2, 752 L434.59999999999997 752  Q438.59999999999997 752
                438.59999999999997 748
                L438.59999999999997 509.5 Q438.59999999999997 501.5
                434.59999999999997 501.5
                L88 501.5  Q80 501.5
                80 505.5
                L80 513.5"
        style="fill:none; stroke:#444; stroke-width:1" />
               <path d="M77, 513.5 L80, 521.5 L83, 513.5 Z" 
        fill="#333" />
            </g>
            <g>
               <path d="M25, 40 L25 796.5 Q25 800.5
                29 800.5
                L42 800.5 "
        style="fill:none; stroke:#444; stroke-width:1" />
               <path d="M42, 797.5 L50, 800.5 L42, 803.5 Z" 
        fill="#333" />
            </g>
            </svg>