<?xml version="1.0" encoding="UTF-8"?>
<!-- Generated by Pixelmator Pro 3.5.8 -->
<svg width="40px" height="0px" viewBox="0 0 124 20" xmlns="http://www.w3.org/2000/svg">
    <clipPath id="clipPath1">
        <path d="M 0 -0.6 L 118.199997 -0.6 L 118.199997 112.999998 L 0 112.999998 Z"/>
    </clipPath>
    <path id="Path" fill="#000000" stroke="none" clip-path="url(#clipPath1)" d="M 58.5 61.700001 C 66.599998 61.700001 74 65 79.199997 70.400002 L 80 69.599998 C 74.5 64 66.900002 60.5 58.400002 60.5 C 49.900002 60.5 42.400002 64 37 69.599998 L 37.799999 70.400002 C 43.099998 65 50.400002 61.700001 58.5 61.700001 M 58.5 74 C 63.5 74 67.900002 76.200005 71 79.700005 L 71.900002 78.900002 C 68.599998 75.200005 63.900002 72.800003 58.5 72.800003 C 53.099998 72.800003 48.400002 75.099998 45.099998 78.900002 L 46 79.700005 C 49.099998 76.200005 53.5 74 58.5 74 M 74.800003 68.800003 C 74.5 68.5 74.199997 68.599998 74 68.800003 L 67.400002 73.099998 L 68.800003 73.900002 L 73.5 70.800003 L 72.800003 73.400002 L 72.199997 72.900002 L 70.900002 73.700005 L 72.400002 74.800003 L 72 76.300003 L 73.199997 77.400002 L 75.400002 69.900002 C 75.5 69.599998 75.5 69.400002 75.199997 69.099998 L 74.800003 68.800003 Z M 46 74 C 46.400002 73.700005 46.700001 73.200005 46.700001 72.800003 C 46.799999 72.300003 46.599998 71.900002 46.099998 71.300003 L 43.5 68.099998 L 44.700001 67.200005 L 47.599998 70.700005 C 48.200001 71.400002 48.400002 72.200005 48.400002 73 C 48.299999 73.900002 47.900002 74.599998 47.099998 75.300003 C 46.299999 75.900002 45.5 76.200005 44.599998 76.099998 C 43.799999 76 43.099998 75.599998 42.5 74.900002 L 39.599998 71.400002 L 40.799999 70.5 L 43.400002 73.700005 C 43.900002 74.300003 44.200001 74.599998 44.799999 74.599998 C 45.099998 74.5 45.599998 74.300003 46 74 M 52.299999 65.700005 L 52.599998 67.400002 L 56 66.700005 L 56.299999 68.099998 L 52.900002 68.800003 L 53 69.400002 C 53.200001 70.200005 53.5 70.300003 54.200001 70.200005 L 56.900002 69.599998 L 57.200001 71 L 54.400002 71.599998 C 53.099998 71.900002 51.900002 71.5 51.599998 69.900002 L 50.599998 65.099998 C 50.5 64.700005 50.700001 64.5 51 64.400002 L 55.599998 63.5 L 55.900002 64.900002 L 52.299999 65.700005 Z M 62.299999 71.5 L 61.400002 71.300003 C 61.099998 71.200005 60.900002 71 61 70.599998 L 62.200001 65.900002 C 62.599998 64.300003 63.799999 64 65.099998 64.300003 L 67.900002 65 L 67.599998 66.400002 L 64.900002 65.700005 C 64.199997 65.5 63.900002 65.599998 63.700001 66.400002 L 63.5 67.099998 L 66.900002 68 L 66.5 69.400002 L 63.099998 68.5 L 62.299999 71.5 Z M 90.5 111.200005 L 90.5 111.200005 L 90.900002 111.200005 C 91.099998 111.200005 91.400002 111.200005 91.400002 110.900002 C 91.400002 110.700005 91.199997 110.599998 91 110.599998 L 90.599998 110.599998 L 90.5 111.200005 L 90.5 111.200005 Z M 90.5 111.400002 L 90.5 111.400002 L 90.5 112.200005 L 90.199997 112.200005 L 90.199997 110.300003 L 90.900002 110.300003 C 91.400002 110.300003 91.599998 110.5 91.599998 110.800003 C 91.599998 111.099998 91.400002 111.300003 91.099998 111.300003 L 91.599998 112.200005 L 91.300003 112.200005 L 90.800003 111.400002 L 90.5 111.400002 Z M 89.400002 111.300003 L 89.400002 111.300003 C 89.400002 112.099998 90 112.700005 90.800003 112.700005 C 91.599998 112.700005 92.199997 112.099998 92.199997 111.300003 C 92.199997 110.5 91.599998 109.900002 90.800003 109.900002 C 90 109.900002 89.400002 110.5 89.400002 111.300003 M 90.800003 113 L 90.800003 113 C 89.900002 113 89.099998 112.300003 89.099998 111.300003 C 89.099998 110.300003 89.900002 109.599998 90.800003 109.599998 C 91.699997 109.599998 92.5 110.300003 92.5 111.300003 C 92.5 112.300003 91.699997 113 90.800003 113 M 81.699997 100.900002 L 81.699997 100.900002 L 81.699997 108.200005 C 81.699997 108.599998 81.5 108.800003 81.099998 108.800003 L 81.099998 109.200005 L 88.5 109.200005 C 88.5 108.400002 88.5 107.700005 88.699997 106.5 L 88.199997 106.5 C 88 107.700005 87.699997 107.900002 87 107.900002 L 83.800003 107.900002 L 83.800003 104.900002 L 85.699997 104.900002 C 86.300003 104.900002 86.400002 105.099998 86.5 105.599998 L 86.900002 105.599998 C 86.900002 105.300003 86.800003 104.599998 86.800003 104.300003 C 86.800003 103.900002 86.800003 103.300003 86.900002 103 L 86.5 103 C 86.400002 103.5 86.300003 103.700005 85.699997 103.700005 L 83.800003 103.700005 L 83.800003 101 L 86.800003 101 C 87.599998 101 87.800003 101.300003 87.900002 102 L 88.300003 102 C 88.199997 101.200005 88.199997 100.599998 88.199997 99.800003 L 81.099998 99.800003 L 81.099998 100.200005 C 81.5 100.400002 81.699997 100.599998 81.699997 100.900002 M 70.400002 100.900002 L 70.400002 100.900002 L 70.400002 106.099998 C 70.400002 108.5 71.699997 109.300003 74.300003 109.300003 C 76.800003 109.300003 78.199997 108.5 78.199997 105.900002 L 78.199997 100.900002 C 78.199997 100.5 78.400002 100.300003 78.800003 100.300003 L 78.800003 99.900002 C 78.300003 99.900002 77.800003 100 77.199997 100 C 76.5 100 75.900002 100 75.300003 99.900002 L 75.300003 100.300003 C 75.900002 100.300003 76.099998 100.400002 76.099998 101 L 76.099998 106.200005 C 76.099998 107.800003 75.400002 108.099998 74.300003 108.099998 C 73.199997 108.099998 72.5 107.800003 72.5 106.200005 L 72.5 101 C 72.5 100.5 72.699997 100.300003 73.300003 100.300003 L 73.300003 99.900002 C 72.699997 99.900002 72.199997 100 71.400002 100 C 70.800003 100 70.199997 100 69.800003 99.900002 L 69.800003 100.300003 C 70.199997 100.300003 70.400002 100.5 70.400002 100.900002 M 64.800003 105.900002 L 64.800003 105.900002 L 64.800003 106.900002 C 64.800003 107.5 64.300003 108 63.299999 108 C 61.700001 108 60.700001 106 60.700001 104.300003 C 60.700001 102.5 61.700001 101 63.599998 101 C 64.800003 101 65.900002 101.599998 66.099998 102.900002 L 66.5 102.900002 C 66.400002 101.900002 66.400002 101.099998 66.400002 100.5 C 65.599998 100 64.599998 99.800003 63.599998 99.800003 C 60.599998 99.800003 58.5 101.599998 58.5 104.700005 C 58.5 107.200005 60.200001 109.400002 62.799999 109.400002 C 63.799999 109.400002 64.699997 109.099998 65.599998 108.300003 L 65.900002 109.200005 L 66.699997 109.200005 L 66.699997 106.099998 C 66.699997 105.5 67 105.300003 67.400002 105.300003 L 67.400002 104.900002 C 66.800003 104.900002 66.199997 105 65.5 105 C 64.900002 105 64.300003 105 63.799999 104.900002 L 63.799999 105.400002 C 64.599998 105.300003 64.800003 105.300003 64.800003 105.900002 M 53.5 105.200005 L 53.5 105.200005 L 51.5 105.200005 C 51.900002 104.200005 52.299999 103.099998 52.599998 102 L 52.599998 102 C 53 103.400002 53.200001 104.200005 53.5 105.200005 M 48.099998 108.800003 L 48.099998 108.800003 L 48.099998 109.200005 C 48.599998 109.200005 49.099998 109.099998 49.599998 109.099998 C 50.099998 109.099998 50.599998 109.099998 51 109.200005 L 51 108.800003 C 50.5 108.800003 50.299999 108.599998 50.299999 108.400002 C 50.299999 108.300003 50.299999 108.099998 50.400002 107.900002 L 51 106.300003 L 53.700001 106.300003 L 54.099998 107.700005 C 54.200001 107.900002 54.200001 108.200005 54.200001 108.400002 C 54.200001 108.700005 54 108.800003 53.5 108.900002 L 53.5 109.300003 C 54.099998 109.300003 54.700001 109.200005 55.299999 109.200005 C 55.900002 109.200005 56.5 109.200005 57.099998 109.300003 L 57.099998 108.900002 C 56.700001 108.800003 56.5 108.599998 56.299999 108 L 53.700001 100 C 53.299999 100 52.799999 100.099998 52.400002 100.099998 C 52 100.099998 51.5 100.099998 51.099998 100 L 51.099998 100.400002 C 51.5 100.400002 51.599998 100.599998 51.599998 100.800003 C 51.599998 100.900002 51.5 101.099998 51.400002 101.300003 L 48.700001 108.200005 C 48.700001 108.5 48.5 108.700005 48.099998 108.800003 M 39.5 100.900002 L 39.5 100.900002 L 39.5 108.200005 C 39.5 108.599998 39.299999 108.800003 38.900002 108.800003 L 38.900002 109.200005 L 46.299999 109.200005 C 46.299999 108.400002 46.299999 107.700005 46.5 106.5 L 46 106.5 C 45.799999 107.700005 45.5 107.900002 44.799999 107.900002 L 41.599998 107.900002 L 41.599998 105 L 43.5 105 C 44.099998 105 44.200001 105.200005 44.299999 105.700005 L 44.700001 105.700005 C 44.700001 105.400002 44.599998 104.700005 44.599998 104.400002 C 44.599998 104 44.599998 103.400002 44.700001 103.099998 L 44.299999 103.099998 C 44.200001 103.599998 44.099998 103.800003 43.5 103.800003 L 41.599998 103.800003 L 41.599998 101.099998 L 44.599998 101.099998 C 45.400002 101.099998 45.599998 101.400002 45.700001 102.099998 L 46.099998 102.099998 C 46 101.300003 46 100.700005 46 99.900002 L 38.900002 99.900002 L 38.900002 100.300003 C 39.400002 100.400002 39.5 100.599998 39.5 100.900002 M 30.6 100.900002 L 30.6 100.900002 L 30.6 108.200005 C 30.6 108.599998 30.4 108.800003 30 108.800003 L 30 109.200005 L 37 109.200005 C 37 108.300003 37.200001 107.400002 37.299999 106.5 L 36.799999 106.5 C 36.599998 107.599998 36.200001 108 35.299999 108 L 32.700001 108 L 32.700001 101.099998 C 32.700001 100.700005 32.799999 100.400002 33.5 100.300003 L 33.5 99.900002 C 33.099998 99.900002 32.200001 100 31.700001 100 C 31.200001 100 30.6 100 30 99.900002 L 30 100.300003 C 30.4 100.300003 30.6 100.5 30.6 100.900002 M 11 93.700005 L 11 93.700005 L 11.2 91.400002 C 10.1 92.300003 8.5 92.900002 7.4 92.900002 C 4.8 92.900002 2.9 90.300003 2.9 88 C 2.9 85 4.7 83.200005 6.9 83.200005 C 8.6 83.200005 9.8 84.099998 10.1 85.800003 L 10.6 85.800003 C 10.5 84.5 10.4 83.200005 10.4 81.800003 C 9.9 81.599998 8.8 81.300003 7.1 81.300003 C 2.4 81.300003 0 84.700005 0 88.200005 C 0 91.599998 2.4 95 6.8 95 C 7.9 95 9.7 94.599998 11 93.700005 M 43 85.300003 L 43 85.300003 L 42.599998 92.900002 C 42.599998 93.700005 42.299999 93.800003 41.599998 93.900002 L 41.599998 94.400002 C 42.200001 94.300003 42.799999 94.300003 43.5 94.300003 C 44.200001 94.300003 44.900002 94.400002 45.599998 94.400002 L 45.599998 93.900002 C 44.5 93.800003 44.400002 93.599998 44.400002 92.700005 C 44.400002 92.200005 44.400002 91.700005 44.5 90.800003 L 44.599998 85.5 L 44.599998 85.5 L 48.099998 94.5 L 49.599998 94.5 L 52.599998 85.599998 L 52.599998 85.599998 L 53 91 C 53.099998 91.599998 53.099998 92.400002 53.099998 92.900002 C 53.099998 93.700005 52.900002 93.900002 52 94 L 52 94.5 C 52.700001 94.400002 53.5 94.400002 54.299999 94.400002 C 55.099998 94.400002 55.900002 94.5 56.700001 94.5 L 56.700001 94 C 56.299999 93.900002 55.799999 93.900002 55.799999 93.400002 L 55.200001 85.599998 C 55.099998 85 55.099998 84.200005 55.099998 83.700005 C 55.099998 83.200005 55.200001 83 55.799999 83 L 55.799999 82.400002 C 55.200001 82.5 54.5 82.5 53.900002 82.5 C 53.299999 82.5 52.599998 82.400002 52 82.400002 L 49.200001 90.800003 L 46.099998 82.400002 C 45.400002 82.5 44.799999 82.5 44.099998 82.5 C 43.400002 82.5 42.799999 82.400002 42.200001 82.400002 L 42.200001 82.900002 C 42.900002 83 43 83.099998 43 83.599998 C 43.099998 84.300003 43 84.800003 43 85.300003 M 27.5 94.300003 L 27.5 94.300003 L 27.5 93.800003 C 28 93.700005 28.299999 93.400002 28.4 93 L 32 84 C 32.099998 83.700005 32.200001 83.5 32.200001 83.300003 C 32.200001 83.099998 32 82.800003 31.5 82.800003 L 31.5 82.400002 C 32.099998 82.5 32.599998 82.5 33.200001 82.5 C 33.799999 82.5 34.299999 82.400002 34.900002 82.400002 L 38.200001 92.700005 C 38.5 93.5 38.700001 93.700005 39.299999 93.900002 L 39.299999 94.400002 C 38.5 94.300003 37.799999 94.300003 37 94.300003 C 36.200001 94.300003 35.400002 94.400002 34.700001 94.400002 L 34.700001 93.900002 C 35.400002 93.800003 35.599998 93.599998 35.599998 93.200005 C 35.599998 92.900002 35.5 92.5 35.400002 92.300003 L 34.799999 90.5 L 31.299999 90.5 L 30.5 92.599998 C 30.4 92.900002 30.4 93.099998 30.4 93.200005 C 30.4 93.5 30.700001 93.700005 31.299999 93.800003 L 31.299999 94.300003 C 30.700001 94.200005 30 94.200005 29.4 94.200005 C 28.700001 94.200005 28.1 94.300003 27.5 94.300003 M 31.799999 89.099998 L 31.799999 89.099998 L 34.400002 89.099998 C 34 87.900002 33.700001 86.800003 33.299999 84.900002 L 33.299999 84.900002 C 32.900002 86.400002 32.299999 87.900002 31.799999 89.099998 M 14.5 83.599998 L 14.5 83.599998 L 14.5 93.099998 C 14.5 93.599998 14.3 93.800003 13.7 93.900002 L 13.7 94.400002 C 14.5 94.300003 15.2 94.300003 15.9 94.300003 C 16.6 94.300003 17.299999 94.400002 18.1 94.400002 L 18.1 93.900002 C 17.5 93.900002 17.299999 93.599998 17.299999 93.099998 L 17.299999 88.900002 L 21.700001 88.900002 L 21.700001 93.099998 C 21.700001 93.599998 21.5 93.800003 20.9 93.900002 L 20.9 94.400002 C 21.700001 94.300003 22.4 94.300003 23.1 94.300003 C 23.799999 94.300003 24.5 94.400002 25.299999 94.400002 L 25.299999 93.900002 C 24.700001 93.900002 24.5 93.599998 24.5 93.099998 L 24.5 83.599998 C 24.5 83.099998 24.700001 82.900002 25.299999 82.800003 L 25.299999 82.400002 C 24.5 82.5 23.799999 82.5 23.1 82.5 C 22.4 82.5 21.700001 82.400002 20.9 82.400002 L 20.9 82.900002 C 21.5 82.900002 21.700001 83.200005 21.700001 83.700005 L 21.700001 87.300003 L 17.299999 87.300003 L 17.299999 83.700005 C 17.299999 83.200005 17.5 83 18.1 82.900002 L 18.1 82.400002 C 17.299999 82.5 16.6 82.5 15.9 82.5 C 15.2 82.5 14.5 82.400002 13.7 82.400002 L 13.7 82.900002 C 14.3 82.900002 14.5 83.099998 14.5 83.599998 M 108.900002 90.200005 L 108.900002 90.200005 L 108.400002 90.200005 C 108.5 91.300003 108.5 92.599998 108.5 94 C 109.800003 94.400002 111.199997 94.700005 112.599998 94.700005 C 115.599998 94.700005 118.099998 93.400002 118.099998 90.900002 C 118.099998 88.5 116.300003 87.800003 114.5 87.200005 L 112.5 86.599998 C 111.699997 86.400002 110.800003 86.099998 110.800003 85 C 110.800003 83.700005 112.400002 83.400002 113.300003 83.400002 C 115 83.400002 116.400002 84.200005 116.800003 85.900002 L 117.300003 85.900002 C 117.199997 84.900002 117.199997 83.800003 117.199997 82.400002 C 116.099998 82 114.900002 81.800003 113.699997 81.800003 C 110.900002 81.800003 108.099998 82.700005 108.099998 85.599998 C 108.099998 87.800003 110 88.599998 111.900002 89.200005 L 113.199997 89.599998 C 114.099998 89.900002 115.199997 90.200005 115.199997 91.300003 C 115.199997 92.700005 113.599998 93 112.5 93 C 110.599998 93.200005 109.300003 92.200005 108.900002 90.200005 M 94.800003 83.599998 L 94.800003 83.599998 L 94.800003 93.099998 C 94.800003 93.599998 94.599998 93.800003 94 93.900002 L 94 94.400002 C 94.599998 94.300003 95.199997 94.300003 95.800003 94.300003 C 96.400002 94.300003 96.900002 94.400002 97.5 94.400002 L 97.5 93.900002 C 97 93.900002 96.400002 93.800003 96.400002 92.900002 L 96.400002 85 L 96.400002 85 L 102.400002 94.400002 L 104.300003 94.400002 L 104.300003 83.599998 C 104.300003 83.099998 104.5 82.900002 105.099998 82.800003 L 105.099998 82.400002 C 104.5 82.5 103.900002 82.5 103.300003 82.5 C 102.699997 82.5 102.199997 82.400002 101.599998 82.400002 L 101.599998 82.900002 C 102.099998 82.900002 102.699997 83 102.699997 83.900002 L 102.699997 90.5 L 102.699997 90.5 L 97.699997 82.400002 C 97.099998 82.5 96.599998 82.5 96.099998 82.5 C 95.400002 82.5 94.699997 82.400002 93.900002 82.400002 L 93.900002 82.900002 C 94.599998 82.900002 94.800003 83.099998 94.800003 83.599998 M 72.900002 83.599998 L 72.900002 83.599998 L 72.900002 93.099998 C 72.900002 93.599998 72.699997 93.800003 72.099998 93.900002 L 72.099998 94.400002 C 72.900002 94.300003 73.599998 94.300003 74.300003 94.300003 C 75 94.300003 75.699997 94.400002 76.5 94.400002 L 76.5 93.900002 C 75.900002 93.900002 75.699997 93.599998 75.699997 93.099998 L 75.699997 83.599998 C 75.699997 83.099998 75.900002 82.900002 76.5 82.800003 L 76.5 82.400002 C 75.699997 82.5 75 82.5 74.300003 82.5 C 73.599998 82.5 72.900002 82.400002 72.099998 82.400002 L 72.099998 82.900002 C 72.699997 82.900002 72.900002 83.099998 72.900002 83.599998 M 63 92.800003 L 63 92.800003 L 63 84.200005 L 64.099998 84.099998 C 65.699997 84.099998 66.699997 84.700005 66.699997 86.300003 C 66.699997 87.800003 66 88.900002 64.099998 88.900002 C 63.900002 88.900002 63.599998 88.800003 63.5 88.800003 C 63.299999 88.800003 63.200001 88.800003 63.200001 89 C 63.200001 89.400002 64.5 89.800003 65.400002 89.800003 C 67.699997 89.800003 69.400002 88.400002 69.400002 86.200005 C 69.400002 84.099998 68.199997 82.5 64.800003 82.5 L 59.400002 82.5 L 59.400002 83 C 60 83 60.200001 83.300003 60.200001 83.800003 L 60.200001 92.700005 C 60.200001 93.599998 60.099998 93.900002 59.400002 94 L 59.400002 94.5 C 60.200001 94.400002 60.900002 94.400002 61.599998 94.400002 C 62.299999 94.400002 63 94.5 64.099998 94.5 L 64.099998 94 C 63.099998 93.700005 63 93.5 63 92.800003 M 84.900002 84 L 84.900002 84 C 87.599998 84 88.400002 87.099998 88.400002 89.200005 C 88.400002 91.200005 87.300003 92.800003 85.5 92.800003 C 82.900002 92.800003 82 89.700005 82 87.599998 C 82 86.099998 82.699997 84 84.900002 84 M 85.099998 94.5 L 85.099998 94.5 C 88.400002 94.5 91.099998 92.200005 91.099998 88.400002 C 91.099998 85.200005 88.900002 82.200005 85.199997 82.200005 C 81.900002 82.200005 79.300003 84.700005 79.300003 88.099998 C 79.300003 91.5 81.5 94.5 85.099998 94.5 M 71.099998 48.699997 C 71.699997 46.099998 71.199997 43.699997 71.199997 43.699997 C 69.5 46.099998 67.900002 47.900002 66.400002 49.300003 C 62.299999 49.5 59.200001 49 59.200001 49 C 59.200001 49 61 50.800003 63.099998 51.900002 C 60.299999 53.600002 58.5 53.800003 58.5 53.800003 C 70.599998 54.100002 77.800003 46.199997 77.800003 46.199997 C 75.800003 47.300003 73.400002 48.199997 71.099998 48.699997 M 59.200001 48.900002 C 59.200001 48.900002 56.700001 47.900002 53.200001 45.900002 C 53.299999 43.800003 53.700001 41.099998 54.299999 37.699997 C 54.299999 37.699997 51.5 40.5 47.900002 42.599998 C 45.799999 41.099998 43.599998 39.400002 41.400002 37.5 C 41.400002 37.5 42.400002 40.699997 44.5 44.300003 C 42.599998 45 40.599998 45.300003 38.799999 44.900002 C 38.799999 44.900002 40.900002 47.599998 47.5 48.699997 C 49.299999 50.900002 51.5 52.600002 54.099998 53.300003 C 54.099998 53.300003 53.299999 52.400002 53.099998 49.200001 C 55 49.200001 57 49.100002 59.200001 48.900002 M 44.700001 24.900002 C 41.799999 25 39.5 25.199997 37.700001 25.599998 C 37.200001 22.5 37.099998 20.199997 37.099998 20.199997 C 35.700001 22.400002 34.700001 24.5 34.099998 26.5 C 32.099998 27.300003 31.5 28 31.5 28 C 31.799999 29.099998 32.5 30.099998 33.299999 31.099998 C 33 35.800003 34.599998 38.900002 34.599998 38.900002 C 34.900002 37.300003 35.599998 35.599998 36.5 34.099998 C 39 36.099998 41.5 37.400002 41.5 37.400002 C 40.299999 35.300003 39.5 33 38.799999 30.699997 C 41.599998 27.300003 44.700001 24.900002 44.700001 24.900002 M 37.900002 13.599998 C 39.299999 12.300003 41 10.800003 43.099998 9.300003 C 43.099998 9.300003 41.200001 9.300003 39.200001 9.800003 C 40.5 6.599998 42 4.800003 42 4.800003 C 42 4.800003 33.5 10.800003 31.9 21.599998 C 31.9 21.599998 32.599998 19.699997 35 16.699997 C 36 18.800003 37.099998 20.199997 37.099998 20.199997 C 37.099998 17.699997 37.400002 15.5 37.900002 13.599998 M 66 4.699997 C 63.799999 3.599998 61.599998 2.800003 59.599998 2.199997 C 62.099998 0.099998 64.5 -0.5 64.5 -0.5 C 60.5 -0.599998 57 0.099998 54 1.300003 C 49.599998 0.900002 46.799999 1.699997 46.799999 1.699997 C 47.5 2.199997 48 3.099998 48.599998 4.099998 C 44.900002 6.599998 43 9.300003 43 9.300003 C 45.200001 8.199997 47.599998 7.400002 49.900002 6.699997 C 50.200001 7.199997 50.400002 7.599998 50.700001 8.099998 C 52.200001 10.5 53.900002 12.199997 53.900002 12.199997 C 54.5 9.300003 55.5 7.099998 56.700001 5.300003 C 62.099998 4.599998 66 4.699997 66 4.699997 M 84.699997 17.300003 C 83.300003 14.199997 81.300003 11.800003 79.199997 10.099998 C 77.300003 6.199997 75.199997 4.400002 75.199997 4.400002 C 75.400002 5.300003 75.199997 6.300003 74.900002 7.400002 C 70.199997 5 66 4.699997 66 4.699997 C 68.699997 6.5 71.099998 8.599998 73.099998 10.900002 C 71.199997 14 68.699997 16.599998 68.699997 16.599998 C 72 15.900002 74.599998 15.5 76.699997 15.5 C 79.900002 20 81.699997 23.699997 81.699997 23.699997 C 81.800003 20.699997 81.5 18 81 15.800003 C 83.800003 16.199997 84.699997 17.300003 84.699997 17.300003 M 86.099998 28.5 C 85.300003 29.800003 84.099998 30.699997 82.599998 31.300003 C 82.400002 27.300003 81.800003 23.699997 81.800003 23.699997 C 80.599998 27 79.300003 30 78 32.5 C 73.699997 33.099998 69.400002 32.400002 69.400002 32.400002 C 71.699997 35.199997 73.599998 36.900002 75 38 C 72.800003 41.699997 71.199997 43.699997 71.199997 43.699997 C 74.300003 43 76.699997 41.800003 78.699997 40.400002 C 79.5 40.900002 80.199997 41.599998 80.900002 42.599998 C 80.900002 42.599998 82.199997 40.800003 82.599998 36.699997 C 85.599998 32.599998 86.099998 28.5 86.099998 28.5 M 59.099998 30 L 59.099998 30 C 57.5 32.5 55.799999 35.099998 54.400002 37.800003 C 54.400002 37.800003 53.200001 33.800003 52.799999 28.099998 C 50.099998 27.199997 47.400002 26.199997 44.700001 25 C 44.700001 25 47.799999 23.400002 52.700001 21.599998 C 52.799999 18.599998 53.299999 15.5 54.099998 12.300003 C 54.099998 12.300003 55.700001 15.300003 58.599998 19.5 C 61.700001 18.5 65.099998 17.5 68.800003 16.699997 C 68.800003 16.699997 66.099998 20.099998 62.700001 24.900002 C 64.699997 27.400002 66.900002 30 69.5 32.5 C 69.400002 32.400002 65 31.599998 59.099998 30"/>
</svg>
