<?xml version="1.0" encoding="utf-8"?>
<!-- Generator: Adobe Illustrator 23.0.3, SVG Export Plug-In . SVG Version: 6.00 Build 0)  -->
<svg version="1.1" id="Layer_1" xmlns="http://www.w3.org/2000/svg" xmlns:xlink="http://www.w3.org/1999/xlink" x="0px" y="0px"
	 viewBox="0 0 118.2 113.6" style="enable-background:new 0 0 118.2 113.6;" xml:space="preserve">
<style type="text/css">
	.st0{clip-path:url(#SVGID_2_);fill:#0E2050;}
</style>
<g>
	<g>
		<defs>
			<rect id="SVGID_1_" x="0" width="118.2" height="113.6"/>
		</defs>
		<clipPath id="SVGID_2_">
			<use xlink:href="#SVGID_1_"  style="overflow:visible;"/>
		</clipPath>
		<path class="st0" d="M58.5,62.3c8.1,0,15.5,3.3,20.7,8.7l0.8-0.8c-5.5-5.6-13.1-9.1-21.6-9.1s-16,3.5-21.4,9.1l0.8,0.8
			C43.1,65.6,50.4,62.3,58.5,62.3 M58.5,74.6c5,0,9.4,2.2,12.5,5.7l0.9-0.8c-3.3-3.7-8-6.1-13.4-6.1s-10.1,2.3-13.4,6.1l0.9,0.8
			C49.1,76.8,53.5,74.6,58.5,74.6 M74.8,69.4c-0.3-0.3-0.6-0.2-0.8,0l-6.6,4.3l1.4,0.8l4.7-3.1L72.8,74l-0.6-0.5l-1.3,0.8l1.5,1.1
			L72,76.9l1.2,1.1l2.2-7.5c0.1-0.3,0.1-0.5-0.2-0.8L74.8,69.4z M46,74.6c0.4-0.3,0.7-0.8,0.7-1.2c0.1-0.5-0.1-0.9-0.6-1.5l-2.6-3.2
			l1.2-0.9l2.9,3.5c0.6,0.7,0.8,1.5,0.8,2.3c-0.1,0.9-0.5,1.6-1.3,2.3c-0.8,0.6-1.6,0.9-2.5,0.8c-0.8-0.1-1.5-0.5-2.1-1.2L39.6,72
			l1.2-0.9l2.6,3.2c0.5,0.6,0.8,0.9,1.4,0.9C45.1,75.1,45.6,74.9,46,74.6 M52.3,66.3l0.3,1.7l3.4-0.7l0.3,1.4l-3.4,0.7L53,70
			c0.2,0.8,0.5,0.9,1.2,0.8l2.7-0.6l0.3,1.4l-2.8,0.6c-1.3,0.3-2.5-0.1-2.8-1.7l-1-4.8c-0.1-0.4,0.1-0.6,0.4-0.7l4.6-0.9l0.3,1.4
			L52.3,66.3z M62.3,72.1l-0.9-0.2c-0.3-0.1-0.5-0.3-0.4-0.7l1.2-4.7c0.4-1.6,1.6-1.9,2.9-1.6l2.8,0.7L67.6,67l-2.7-0.7
			c-0.7-0.2-1-0.1-1.2,0.7l-0.2,0.7l3.4,0.9L66.5,70l-3.4-0.9L62.3,72.1z M90.5,111.8L90.5,111.8h0.4c0.2,0,0.5,0,0.5-0.3
			c0-0.2-0.2-0.3-0.4-0.3h-0.4L90.5,111.8L90.5,111.8z M90.5,112L90.5,112v0.8h-0.3v-1.9h0.7c0.5,0,0.7,0.2,0.7,0.5
			s-0.2,0.5-0.5,0.5l0.5,0.9h-0.3l-0.5-0.8H90.5z M89.4,111.9L89.4,111.9c0,0.8,0.6,1.4,1.4,1.4s1.4-0.6,1.4-1.4s-0.6-1.4-1.4-1.4
			S89.4,111.1,89.4,111.9 M90.8,113.6L90.8,113.6c-0.9,0-1.7-0.7-1.7-1.7s0.8-1.7,1.7-1.7c0.9,0,1.7,0.7,1.7,1.7
			S91.7,113.6,90.8,113.6 M81.7,101.5L81.7,101.5v7.3c0,0.4-0.2,0.6-0.6,0.6v0.4h7.4c0-0.8,0-1.5,0.2-2.7h-0.5
			c-0.2,1.2-0.5,1.4-1.2,1.4h-3.2v-3h1.9c0.6,0,0.7,0.2,0.8,0.7h0.4c0-0.3-0.1-1-0.1-1.3c0-0.4,0-1,0.1-1.3h-0.4
			c-0.1,0.5-0.2,0.7-0.8,0.7h-1.9v-2.7h3c0.8,0,1,0.3,1.1,1h0.4c-0.1-0.8-0.1-1.4-0.1-2.2h-7.1v0.4C81.5,101,81.7,101.2,81.7,101.5
			 M70.4,101.5L70.4,101.5v5.2c0,2.4,1.3,3.2,3.9,3.2c2.5,0,3.9-0.8,3.9-3.4v-5c0-0.4,0.2-0.6,0.6-0.6v-0.4c-0.5,0-1,0.1-1.6,0.1
			c-0.7,0-1.3,0-1.9-0.1v0.4c0.6,0,0.8,0.1,0.8,0.7v5.2c0,1.6-0.7,1.9-1.8,1.9c-1.1,0-1.8-0.3-1.8-1.9v-5.2c0-0.5,0.2-0.7,0.8-0.7
			v-0.4c-0.6,0-1.1,0.1-1.9,0.1c-0.6,0-1.2,0-1.6-0.1v0.4C70.2,100.9,70.4,101.1,70.4,101.5 M64.8,106.5L64.8,106.5v1
			c0,0.6-0.5,1.1-1.5,1.1c-1.6,0-2.6-2-2.6-3.7c0-1.8,1-3.3,2.9-3.3c1.2,0,2.3,0.6,2.5,1.9h0.4c-0.1-1-0.1-1.8-0.1-2.4
			c-0.8-0.5-1.8-0.7-2.8-0.7c-3,0-5.1,1.8-5.1,4.9c0,2.5,1.7,4.7,4.3,4.7c1,0,1.9-0.3,2.8-1.1l0.3,0.9h0.8v-3.1
			c0-0.6,0.3-0.8,0.7-0.8v-0.4c-0.6,0-1.2,0.1-1.9,0.1c-0.6,0-1.2,0-1.7-0.1v0.5C64.6,105.9,64.8,105.9,64.8,106.5 M53.5,105.8
			L53.5,105.8h-2c0.4-1,0.8-2.1,1.1-3.2l0,0C53,104,53.2,104.8,53.5,105.8 M48.1,109.4L48.1,109.4v0.4c0.5,0,1-0.1,1.5-0.1
			s1,0,1.4,0.1v-0.4c-0.5,0-0.7-0.2-0.7-0.4c0-0.1,0-0.3,0.1-0.5l0.6-1.6h2.7l0.4,1.4c0.1,0.2,0.1,0.5,0.1,0.7
			c0,0.3-0.2,0.4-0.7,0.5v0.4c0.6,0,1.2-0.1,1.8-0.1s1.2,0,1.8,0.1v-0.4c-0.4-0.1-0.6-0.3-0.8-0.9l-2.6-8c-0.4,0-0.9,0.1-1.3,0.1
			c-0.4,0-0.9,0-1.3-0.1v0.4c0.4,0,0.5,0.2,0.5,0.4c0,0.1-0.1,0.3-0.2,0.5l-2.7,6.9C48.7,109.1,48.5,109.3,48.1,109.4 M39.5,101.5
			L39.5,101.5v7.3c0,0.4-0.2,0.6-0.6,0.6v0.4h7.4c0-0.8,0-1.5,0.2-2.7H46c-0.2,1.2-0.5,1.4-1.2,1.4h-3.2v-2.9h1.9
			c0.6,0,0.7,0.2,0.8,0.7h0.4c0-0.3-0.1-1-0.1-1.3c0-0.4,0-1,0.1-1.3h-0.4c-0.1,0.5-0.2,0.7-0.8,0.7h-1.9v-2.7h3c0.8,0,1,0.3,1.1,1
			h0.4c-0.1-0.8-0.1-1.4-0.1-2.2h-7.1v0.4C39.4,101,39.5,101.2,39.5,101.5 M30.6,101.5L30.6,101.5v7.3c0,0.4-0.2,0.6-0.6,0.6v0.4h7
			c0-0.9,0.2-1.8,0.3-2.7h-0.5c-0.2,1.1-0.6,1.5-1.5,1.5h-2.6v-6.9c0-0.4,0.1-0.7,0.8-0.8v-0.4c-0.4,0-1.3,0.1-1.8,0.1
			s-1.1,0-1.7-0.1v0.4C30.4,100.9,30.6,101.1,30.6,101.5 M11,94.3L11,94.3l0.2-2.3c-1.1,0.9-2.7,1.5-3.8,1.5c-2.6,0-4.5-2.6-4.5-4.9
			c0-3,1.8-4.8,4-4.8c1.7,0,2.9,0.9,3.2,2.6h0.5c-0.1-1.3-0.2-2.6-0.2-4c-0.5-0.2-1.6-0.5-3.3-0.5c-4.7,0-7.1,3.4-7.1,6.9
			c0,3.4,2.4,6.8,6.8,6.8C7.9,95.6,9.7,95.2,11,94.3 M43,85.9L43,85.9l-0.4,7.6c0,0.8-0.3,0.9-1,1V95c0.6-0.1,1.2-0.1,1.9-0.1
			s1.4,0.1,2.1,0.1v-0.5c-1.1-0.1-1.2-0.3-1.2-1.2c0-0.5,0-1,0.1-1.9l0.1-5.3l0,0l3.5,9h1.5l3-8.9l0,0l0.4,5.4
			c0.1,0.6,0.1,1.4,0.1,1.9c0,0.8-0.2,1-1.1,1.1v0.5c0.7-0.1,1.5-0.1,2.3-0.1s1.6,0.1,2.4,0.1v-0.5c-0.4-0.1-0.9-0.1-0.9-0.6
			l-0.6-7.8c-0.1-0.6-0.1-1.4-0.1-1.9s0.1-0.7,0.7-0.7V83c-0.6,0.1-1.3,0.1-1.9,0.1c-0.6,0-1.3-0.1-1.9-0.1l-2.8,8.4L46.1,83
			c-0.7,0.1-1.3,0.1-2,0.1S42.8,83,42.2,83v0.5c0.7,0.1,0.8,0.2,0.8,0.7C43.1,84.9,43,85.4,43,85.9 M27.5,94.9L27.5,94.9v-0.5
			c0.5-0.1,0.8-0.4,0.9-0.8l3.6-9c0.1-0.3,0.2-0.5,0.2-0.7s-0.2-0.5-0.7-0.5V83c0.6,0.1,1.1,0.1,1.7,0.1c0.6,0,1.1-0.1,1.7-0.1
			l3.3,10.3c0.3,0.8,0.5,1,1.1,1.2V95c-0.8-0.1-1.5-0.1-2.3-0.1S35.4,95,34.7,95v-0.5c0.7-0.1,0.9-0.3,0.9-0.7
			c0-0.3-0.1-0.7-0.2-0.9l-0.6-1.8h-3.5l-0.8,2.1c-0.1,0.3-0.1,0.5-0.1,0.6c0,0.3,0.3,0.5,0.9,0.6v0.5c-0.6-0.1-1.3-0.1-1.9-0.1
			C28.7,94.8,28.1,94.9,27.5,94.9 M31.8,89.7L31.8,89.7h2.6c-0.4-1.2-0.7-2.3-1.1-4.2l0,0C32.9,87,32.3,88.5,31.8,89.7 M14.5,84.2
			L14.5,84.2v9.5c0,0.5-0.2,0.7-0.8,0.8V95c0.8-0.1,1.5-0.1,2.2-0.1c0.7,0,1.4,0.1,2.2,0.1v-0.5c-0.6,0-0.8-0.3-0.8-0.8v-4.2h4.4
			v4.2c0,0.5-0.2,0.7-0.8,0.8V95c0.8-0.1,1.5-0.1,2.2-0.1s1.4,0.1,2.2,0.1v-0.5c-0.6,0-0.8-0.3-0.8-0.8v-9.5c0-0.5,0.2-0.7,0.8-0.8
			V83c-0.8,0.1-1.5,0.1-2.2,0.1S21.7,83,20.9,83v0.5c0.6,0,0.8,0.3,0.8,0.8v3.6h-4.4v-3.6c0-0.5,0.2-0.7,0.8-0.8V83
			c-0.8,0.1-1.5,0.1-2.2,0.1c-0.7,0-1.4-0.1-2.2-0.1v0.5C14.3,83.5,14.5,83.7,14.5,84.2 M108.9,90.8L108.9,90.8h-0.5
			c0.1,1.1,0.1,2.4,0.1,3.8c1.3,0.4,2.7,0.7,4.1,0.7c3,0,5.5-1.3,5.5-3.8c0-2.4-1.8-3.1-3.6-3.7l-2-0.6c-0.8-0.2-1.7-0.5-1.7-1.6
			c0-1.3,1.6-1.6,2.5-1.6c1.7,0,3.1,0.8,3.5,2.5h0.5c-0.1-1-0.1-2.1-0.1-3.5c-1.1-0.4-2.3-0.6-3.5-0.6c-2.8,0-5.6,0.9-5.6,3.8
			c0,2.2,1.9,3,3.8,3.6l1.3,0.4c0.9,0.3,2,0.6,2,1.7c0,1.4-1.6,1.7-2.7,1.7C110.6,93.8,109.3,92.8,108.9,90.8 M94.8,84.2L94.8,84.2
			v9.5c0,0.5-0.2,0.7-0.8,0.8V95c0.6-0.1,1.2-0.1,1.8-0.1c0.6,0,1.1,0.1,1.7,0.1v-0.5c-0.5,0-1.1-0.1-1.1-1v-7.9l0,0l6,9.4h1.9V84.2
			c0-0.5,0.2-0.7,0.8-0.8V83c-0.6,0.1-1.2,0.1-1.8,0.1c-0.6,0-1.1-0.1-1.7-0.1v0.5c0.5,0,1.1,0.1,1.1,1v6.6l0,0l-5-8.1
			c-0.6,0.1-1.1,0.1-1.6,0.1c-0.7,0-1.4-0.1-2.2-0.1v0.5C94.6,83.5,94.8,83.7,94.8,84.2 M72.9,84.2L72.9,84.2v9.5
			c0,0.5-0.2,0.7-0.8,0.8V95c0.8-0.1,1.5-0.1,2.2-0.1s1.4,0.1,2.2,0.1v-0.5c-0.6,0-0.8-0.3-0.8-0.8v-9.5c0-0.5,0.2-0.7,0.8-0.8V83
			c-0.8,0.1-1.5,0.1-2.2,0.1S72.9,83,72.1,83v0.5C72.7,83.5,72.9,83.7,72.9,84.2 M63,93.4L63,93.4v-8.6l1.1-0.1
			c1.6,0,2.6,0.6,2.6,2.2c0,1.5-0.7,2.6-2.6,2.6c-0.2,0-0.5-0.1-0.6-0.1c-0.2,0-0.3,0-0.3,0.2c0,0.4,1.3,0.8,2.2,0.8
			c2.3,0,4-1.4,4-3.6c0-2.1-1.2-3.7-4.6-3.7h-5.4v0.5c0.6,0,0.8,0.3,0.8,0.8v8.9c0,0.9-0.1,1.2-0.8,1.3v0.5c0.8-0.1,1.5-0.1,2.2-0.1
			s1.4,0.1,2.5,0.1v-0.5C63.1,94.3,63,94.1,63,93.4 M84.9,84.6L84.9,84.6c2.7,0,3.5,3.1,3.5,5.2c0,2-1.1,3.6-2.9,3.6
			c-2.6,0-3.5-3.1-3.5-5.2C82,86.7,82.7,84.6,84.9,84.6 M85.1,95.1L85.1,95.1c3.3,0,6-2.3,6-6.1c0-3.2-2.2-6.2-5.9-6.2
			c-3.3,0-5.9,2.5-5.9,5.9C79.3,92.1,81.5,95.1,85.1,95.1 M71.1,49.3c0.6-2.6,0.1-5,0.1-5c-1.7,2.4-3.3,4.2-4.8,5.6
			c-4.1,0.2-7.2-0.3-7.2-0.3s1.8,1.8,3.9,2.9c-2.8,1.7-4.6,1.9-4.6,1.9c12.1,0.3,19.3-7.6,19.3-7.6C75.8,47.9,73.4,48.8,71.1,49.3
			 M59.2,49.5c0,0-2.5-1-6-3c0.1-2.1,0.5-4.8,1.1-8.2c0,0-2.8,2.8-6.4,4.9c-2.1-1.5-4.3-3.2-6.5-5.1c0,0,1,3.2,3.1,6.8
			c-1.9,0.7-3.9,1-5.7,0.6c0,0,2.1,2.7,8.7,3.8c1.8,2.2,4,3.9,6.6,4.6c0,0-0.8-0.9-1-4.1C55,49.8,57,49.7,59.2,49.5 M44.7,25.5
			c-2.9,0.1-5.2,0.3-7,0.7c-0.5-3.1-0.6-5.4-0.6-5.4c-1.4,2.2-2.4,4.3-3,6.3c-2,0.8-2.6,1.5-2.6,1.5c0.3,1.1,1,2.1,1.8,3.1
			c-0.3,4.7,1.3,7.8,1.3,7.8c0.3-1.6,1-3.3,1.9-4.8c2.5,2,5,3.3,5,3.3c-1.2-2.1-2-4.4-2.7-6.7C41.6,27.9,44.7,25.5,44.7,25.5
			 M37.9,14.2c1.4-1.3,3.1-2.8,5.2-4.3c0,0-1.9,0-3.9,0.5c1.3-3.2,2.8-5,2.8-5s-8.5,6-10.1,16.8c0,0,0.7-1.9,3.1-4.9
			c1,2.1,2.1,3.5,2.1,3.5C37.1,18.3,37.4,16.1,37.9,14.2 M66,5.3c-2.2-1.1-4.4-1.9-6.4-2.5c2.5-2.1,4.9-2.7,4.9-2.7
			C60.5,0,57,0.7,54,1.9c-4.4-0.4-7.2,0.4-7.2,0.4c0.7,0.5,1.2,1.4,1.8,2.4C44.9,7.2,43,9.9,43,9.9c2.2-1.1,4.6-1.9,6.9-2.6
			c0.3,0.5,0.5,0.9,0.8,1.4c1.5,2.4,3.2,4.1,3.2,4.1c0.6-2.9,1.6-5.1,2.8-6.9C62.1,5.2,66,5.3,66,5.3 M84.7,17.9
			c-1.4-3.1-3.4-5.5-5.5-7.2c-1.9-3.9-4-5.7-4-5.7c0.2,0.9,0,1.9-0.3,3C70.2,5.6,66,5.3,66,5.3c2.7,1.8,5.1,3.9,7.1,6.2
			c-1.9,3.1-4.4,5.7-4.4,5.7c3.3-0.7,5.9-1.1,8-1.1c3.2,4.5,5,8.2,5,8.2c0.1-3-0.2-5.7-0.7-7.9C83.8,16.8,84.7,17.9,84.7,17.9
			 M86.1,29.1c-0.8,1.3-2,2.2-3.5,2.8c-0.2-4-0.8-7.6-0.8-7.6c-1.2,3.3-2.5,6.3-3.8,8.8c-4.3,0.6-8.6-0.1-8.6-0.1
			c2.3,2.8,4.2,4.5,5.6,5.6c-2.2,3.7-3.8,5.7-3.8,5.7c3.1-0.7,5.5-1.9,7.5-3.3c0.8,0.5,1.5,1.2,2.2,2.2c0,0,1.3-1.8,1.7-5.9
			C85.6,33.2,86.1,29.1,86.1,29.1 M59.1,30.6L59.1,30.6c-1.6,2.5-3.3,5.1-4.7,7.8c0,0-1.2-4-1.6-9.7c-2.7-0.9-5.4-1.9-8.1-3.1
			c0,0,3.1-1.6,8-3.4c0.1-3,0.6-6.1,1.4-9.3c0,0,1.6,3,4.5,7.2c3.1-1,6.5-2,10.2-2.8c0,0-2.7,3.4-6.1,8.2c2,2.5,4.2,5.1,6.8,7.6
			C69.4,33,65,32.2,59.1,30.6"/>
	</g>
</g>
</svg>
