<?xml version="1.0" encoding="utf-8"?>
<!-- Generator: Adobe Illustrator 20.0.0, SVG Export Plug-In . SVG Version: 6.00 Build 0)  -->
<svg version="1.1" id="Layer_1" xmlns="http://www.w3.org/2000/svg" xmlns:xlink="http://www.w3.org/1999/xlink" x="0px" y="0px"
	 viewBox="0 0 235.8 38.9" style="enable-background:new 0 0 235.8 38.9;" xml:space="preserve">
<style type="text/css">
	.Arched_x0020_Green{fill:url(#SVGID_1_);stroke:#FFFFFF;stroke-width:0.25;stroke-miterlimit:1;}
	.st0{fill:#FFFFFF;}
</style>
<linearGradient id="SVGID_1_" gradientUnits="userSpaceOnUse" x1="0" y1="61.9297" x2="0.7071" y2="61.2226">
	<stop  offset="0" style="stop-color:#1DA238"/>
	<stop  offset="0.9831" style="stop-color:#24391D"/>
</linearGradient>
<g>
	<g>
		<g>
			<path class="st0" d="M132.4,33.2h3.7v4.7h-3.7V33.2z"/>
		</g>
		<path id="UEFA_5_" class="st0" d="M110.2,1.1c2.1,0,2.8,1.1,3.3,2.4l13.5,34.3l-7.7,0l-2.6-6.8h-8.8l2.4-6.8h3.7l-4.7-12l-9,25.5
			l-7.2,0l12.2-34.3c0.5-1.3,1.2-2.4,3.3-2.4H110.2z M77,22.8h16.6v-6.7H77l0-3.5c0-3.8,1.3-4.8,4.8-4.8h13.4V1.1H81.4
			C75,1.1,69.8,4,69.8,11.9v23.2c0,1.7,1.1,2.7,2.7,2.7H77L77,22.8z M64.9,7.9V1.1H42.2c-1.6,0-2.7,1-2.7,2.7v23.2
			c0,7.9,5.2,10.8,11.5,10.8h13.8v-6.8H51.5c-3.4,0-4.8-0.9-4.8-4.8v-3.5h16.6v-6.7H46.7V7.9H64.9z M11.3,28.6
			c-1.8-1.8-2.4-3.7-2.4-7.6l0-19.9H1.7v21.7c0,4.5,1.3,8.1,4.1,10.7c3.1,3,6.9,4.4,11.8,4.5c4.9,0,8.7-1.4,11.8-4.5
			c2.7-2.7,4.1-6.2,4.1-10.7V1.1h-7.2l0,19.9c0,3.9-0.6,5.7-2.4,7.6c-1.5,1.5-3.8,2.4-6.3,2.4C15.1,30.9,12.8,30.1,11.3,28.6z"/>
	</g>
	<g>
		<path class="st0" d="M159.8,19.2c-0.9-4.1-3.4-6.6-7.7-6.6c-6.4,0-9.6,5.8-9.6,11.6c0,5.8,3.2,11.6,9.6,11.6
			c4.1,0,7.5-3.2,7.9-7.8h3.3c-0.9,6.6-5.2,10.6-11.3,10.6c-8.4,0-12.9-6.6-12.9-14.5c0-7.8,4.6-14.5,12.9-14.5
			c5.8,0,10.3,3.1,11.1,9.4H159.8z"/>
		<path class="st0" d="M192.4,24.3c0,7.8-4.6,14.5-12.9,14.5c-8.4,0-12.9-6.6-12.9-14.5c0-7.8,4.6-14.5,12.9-14.5
			C187.9,9.8,192.4,16.5,192.4,24.3z M169.9,24.3c0,5.8,3.2,11.6,9.6,11.6c6.4,0,9.6-5.8,9.6-11.6c0-5.8-3.2-11.6-9.6-11.6
			C173.1,12.7,169.9,18.5,169.9,24.3z"/>
		<path class="st0" d="M196.4,10.6h3.1v4.6h0.2c1.7-3.3,4.6-5.4,8.9-5.4c3.6,0,6.8,1.7,7.8,5.3c1.6-3.6,5.1-5.3,8.7-5.3
			c6,0,9.1,3.1,9.1,9.6V38h-3.3V19.6c0-4.5-1.7-6.9-6.5-6.9c-5.8,0-7.4,4.8-7.4,9.9V38h-3.3V19.4c0.1-3.7-1.5-6.8-5.7-6.8
			c-5.8,0-8.1,4.3-8.2,10.1V38h-3.3V10.6z"/>
	</g>
</g>
</svg>
